<?xml version="1.0" encoding="utf-8"?>
<!-- Generator: Adobe Illustrator 16.0.3, SVG Export Plug-In . SVG Version: 6.00 Build 0)  -->
<!DOCTYPE svg PUBLIC "-//W3C//DTD SVG 1.1//EN" "http://www.w3.org/Graphics/SVG/1.1/DTD/svg11.dtd">
<svg version="1.1" id="Layer_1" xmlns="http://www.w3.org/2000/svg" xmlns:xlink="http://www.w3.org/1999/xlink" x="0px" y="0px"
	 width="24px" height="24px" viewBox="0 0 24 24" enable-background="new 0 0 24 24" xml:space="preserve">
<g id="block-quote" style="opacity:0.75;">
<g>
	<path d="M6.188,7.855h-1.01c0.229-0.482,0.717-0.819,1.285-0.819c0.287,0,0.519-0.232,0.519-0.518C6.981,6.232,6.749,6,6.462,6
		C5.104,6,4,7.104,4,8.463c0,0.021,0.01,0.04,0.012,0.061C4.01,8.545,4,8.563,4,8.584v1.458c0,0.402,0.327,0.729,0.729,0.729h1.458
		c0.402,0,0.729-0.326,0.729-0.729V8.584C6.917,8.181,6.59,7.855,6.188,7.855z"/>
	<path d="M9.644,7.855H8.635C8.863,7.374,9.352,7.036,9.92,7.036c0.287,0,0.518-0.231,0.518-0.518C10.438,6.232,10.206,6,9.919,6
		C8.562,6,7.457,7.104,7.457,8.462c0,0.022,0.01,0.041,0.012,0.061c-0.002,0.022-0.012,0.04-0.012,0.061v1.458
		c0,0.403,0.327,0.729,0.729,0.729h1.458c0.403,0,0.729-0.326,0.729-0.729V8.584C10.374,8.181,10.047,7.855,9.644,7.855z"/>
</g>
<g>
	<path d="M17.813,16.146h1.01c-0.229,0.482-0.717,0.819-1.285,0.819c-0.287,0-0.519,0.231-0.519,0.518s0.232,0.519,0.52,0.519
		c1.358,0,2.462-1.104,2.462-2.463c0-0.021-0.01-0.04-0.012-0.061c0.002-0.021,0.012-0.039,0.012-0.061v-1.458
		c0-0.401-0.327-0.729-0.729-0.729h-1.458c-0.402,0-0.729,0.326-0.729,0.729v1.458C17.084,15.819,17.411,16.146,17.813,16.146z"/>
	<path d="M14.356,16.146h1.01c-0.229,0.481-0.717,0.819-1.285,0.819c-0.287,0-0.518,0.23-0.518,0.518
		c0,0.286,0.231,0.519,0.519,0.519c1.356,0,2.462-1.104,2.462-2.462c0-0.021-0.01-0.041-0.013-0.062
		c0.003-0.021,0.013-0.039,0.013-0.061v-1.458c0-0.403-0.327-0.729-0.729-0.729h-1.459c-0.402,0-0.729,0.326-0.729,0.729v1.458
		C13.627,15.819,13.954,16.146,14.356,16.146z"/>
</g>
</g>
</svg>
